# Rhino

mtllib 3d-model.mtl
g object_1
usemtl diffuse_Black
v 23.723699569702148 0 233.0933837890625
v 23.723699569702148 96.672798156738281 233.0933837890625
v 127.38362121582031 0 233.0933837890625
v 127.38362121582031 96.672798156738281 233.0933837890625
v 127.38362121582031 0 233.0933837890625
v 127.38362121582031 96.672798156738281 233.0933837890625
v 127.38362121582031 0 154.00148010253906
v 127.38362121582031 96.672798156738281 154.00148010253906
v 127.38362121582031 0 154.00148010253906
v 127.38362121582031 96.672798156738281 154.00148010253906
v 23.723699569702148 0 154.00148010253906
v 23.723699569702148 96.672798156738281 154.00148010253906
v 23.723699569702148 0 154.00148010253906
v 23.723699569702148 96.672798156738281 154.00148010253906
v 23.723699569702148 0 233.0933837890625
v 23.723699569702148 96.672798156738281 233.0933837890625
v 23.723699569702148 0 233.0933837890625
v 127.38362121582031 0 233.0933837890625
v 127.38362121582031 0 154.00148010253906
v 23.723699569702148 0 154.00148010253906
v 23.723699569702148 96.672798156738281 233.0933837890625
v 127.38362121582031 96.672798156738281 233.0933837890625
v 127.38362121582031 96.672798156738281 154.00148010253906
v 23.723699569702148 96.672798156738281 154.00148010253906
vt 0 0
vt 0 0.68966066837310791
vt 0.28360843658447266 0
vt 0.28360843658447266 0.68966066837310791
vt 0.28360843658447266 0
vt 0.28360843658447266 0.68966066837310791
vt 0.5 0
vt 0.5 0.68966066837310791
vt 0.5 0
vt 0.5 0.68966066837310791
vt 0.78360843658447266 0
vt 0.78360843658447266 0.68966066837310791
vt 0.78360843658447266 0
vt 0.78360843658447266 0.68966066837310791
vt 1 0
vt 1 0.68966066837310791
vt 0 1
vt 0.28360843658447266 1
vt 0.28360843658447266 0.68966138362884521
vt 0 0.68966138362884521
vt 0.71639156341552734 0.68966138362884521
vt 1 0.68966138362884521
vt 1 1
vt 0.71639156341552734 1
vn 0 0 1
vn 0 0 1
vn 0 0 1
vn 0 0 1
vn 1 0 0
vn 1 0 0
vn 1 0 0
vn 1 0 0
vn 0 0 -1
vn 0 0 -1
vn 0 0 -1
vn 0 0 -1
vn -1 0 0
vn -1 0 0
vn -1 0 0
vn -1 0 0
vn 0 -1 0
vn 0 -1 0
vn 0 -1 0
vn 0 -1 0
vn 0 1 0
vn 0 1 0
vn 0 1 0
vn 0 1 0
f 18/18/18 17/17/17 20/20/20 19/19/19
f 24/24/24 21/21/21 22/22/22 23/23/23
f 1/1/1 3/3/3 4/4/4 2/2/2
f 5/5/5 7/7/7 8/8/8 6/6/6
f 9/9/9 11/11/11 12/12/12 10/10/10
f 13/13/13 15/15/15 16/16/16 14/14/14
